<svg width="161" height="61" viewBox="0 0 161 61" fill="none" xmlns="http://www.w3.org/2000/svg">
<path d="M11.4883 18.1328V0.199524H0V38.6915L5.08035 33.6037C7.11361 31.5733 8.72624 29.1615 9.82583 26.5067C10.9254 23.852 11.4903 21.0063 11.4883 18.1328Z" fill="#FC502B"/>
<path d="M0 53.05V60.1995H11.4883V32.4987L6.40791 37.579C2.30555 41.6827 0.00067678 47.2474 0 53.05Z" fill="#FC502B"/>
<path d="M26.7439 6.27369V0.199524H15.2556V26.825L20.336 21.7446C22.3692 19.7142 23.9819 17.3024 25.0814 14.6477C26.181 11.9929 26.746 9.14719 26.7439 6.27369Z" fill="#FC502B"/>
<path d="M21.6635 25.7199C19.6319 27.7516 18.0203 30.1636 16.9209 32.8181C15.8214 35.4726 15.2555 38.3177 15.2556 41.1909V60.1995H26.7513V20.6321L21.6635 25.7199Z" fill="#FC502B"/>
<path d="M45.8865 9.34416H53.4217C55.0959 9.25448 56.7487 9.75295 58.0941 10.7533C58.6864 11.2755 59.1504 11.9272 59.4501 12.6578C59.7498 13.3884 59.8771 14.1782 59.8222 14.9659C59.8741 15.7457 59.7452 16.5269 59.4454 17.2486C59.1456 17.9703 58.6832 18.6131 58.0941 19.1266C56.8218 20.1041 55.2474 20.6053 53.6442 20.5432H49.7134V26.825H45.8865V9.34416ZM49.6912 12.4888V17.5246H53.1028C55.0805 17.5246 56.0694 16.689 56.0694 15.0178C56.0694 13.3343 55.0756 12.4888 53.1028 12.4888H49.6912Z" fill="#283891"/>
<path d="M70.094 13.935V17.1538C69.6498 17.0612 69.1978 17.0115 68.7442 17.0055C68.272 16.9753 67.7994 17.0585 67.3659 17.2482C66.9324 17.4378 66.5505 17.7284 66.2522 18.0957C65.6661 18.9698 65.3822 20.0117 65.4438 21.0623V26.8547H61.958V14.1575H65.2732V16.4863C65.6054 15.6811 66.177 14.9975 66.9105 14.5279C67.6441 14.0583 68.5043 13.8254 69.3746 13.8608C69.6229 13.8722 69.8705 13.897 70.1162 13.935" fill="#283891"/>
<path d="M77.2213 13.7867C78.0905 13.7495 78.9579 13.8946 79.7677 14.2127C80.5775 14.5307 81.3118 15.0147 81.9234 15.6334C82.5284 16.2839 82.9975 17.0487 83.3032 17.8828C83.6088 18.717 83.7449 19.6038 83.7034 20.4912C83.746 21.3833 83.6105 22.2749 83.3049 23.114C82.9993 23.9531 82.5297 24.723 81.9234 25.3788C80.6212 26.5618 78.925 27.2172 77.1657 27.2172C75.4064 27.2172 73.7101 26.5618 72.408 25.3788C71.7966 24.7259 71.3227 23.9568 71.0144 23.1172C70.706 22.2776 70.5696 21.3846 70.6131 20.4912C70.5719 19.6007 70.7116 18.7111 71.0239 17.8761C71.3363 17.0412 71.8147 16.2782 72.4302 15.6334C73.0583 15.0119 73.8082 14.527 74.6327 14.2092C75.4572 13.8913 76.3385 13.7475 77.2213 13.7867ZM77.1175 16.4418C76.6867 16.424 76.2583 16.5128 75.8701 16.7005C75.482 16.8881 75.1462 17.1686 74.8925 17.5172C74.3128 18.3942 74.0295 19.434 74.0841 20.4838C74.0219 21.5508 74.3054 22.6093 74.8925 23.5024C75.1476 23.8499 75.4835 24.1301 75.8711 24.3188C76.2588 24.5075 76.6866 24.5989 77.1175 24.5852C77.5494 24.6006 77.9785 24.5092 78.3667 24.319C78.7548 24.1288 79.09 23.8458 79.3424 23.4949C79.9247 22.5945 80.2052 21.5321 80.1434 20.4616C80.2068 19.4086 79.9171 18.3646 79.3202 17.4949C79.0608 17.1596 78.7264 16.8896 78.3439 16.7067C77.9614 16.5238 77.5414 16.4331 77.1175 16.4418Z" fill="#283891"/>
<path d="M92.8846 9.34412V11.8954L91.7351 11.8509C91.3037 11.8046 90.8685 11.8927 90.4891 12.1031C90.3697 12.2474 90.2812 12.4146 90.2289 12.5945C90.1766 12.7743 90.1616 12.963 90.185 13.1488V14.1575H92.6621V16.5159H90.2073V26.825H86.7215V16.5159H84.6597V14.1575H86.7215V13.4974C86.7215 12.0141 87.0552 10.9239 87.7301 10.2638C88.405 9.6037 89.5175 9.26996 91.0676 9.26996C91.2456 9.26996 91.4384 9.26996 91.6461 9.26996H92.321C92.5657 9.26996 92.7586 9.26996 92.8846 9.26996" fill="#283891"/>
<path d="M97.7504 12.2885H94.2646V9.32187H97.7504V12.2885ZM97.7504 26.825H94.2646V14.1575H97.7504V26.825Z" fill="#283891"/>
<path d="M60.7417 33.9449V44.4319C60.7417 46.9387 60.1385 48.7854 58.9321 49.9721C57.7256 51.1587 55.8493 51.7521 53.3029 51.7521C50.712 51.7521 48.8085 51.1488 47.5921 49.9424C46.3758 48.736 45.7652 46.8992 45.7603 44.4319V33.9449H49.5946V44.4319C49.509 45.55 49.793 46.6653 50.403 47.6062C50.9444 48.2885 51.9234 48.6371 53.3696 48.6371C54.8159 48.6371 55.6836 48.2885 56.1805 47.6062C56.7489 46.6498 57.0079 45.5411 56.9222 44.4319V33.9449H60.7417Z" fill="#283891"/>
<path d="M75.6193 51.4257H72.089V44.0091C72.1337 43.2964 71.9797 42.5851 71.644 41.9548C71.4418 41.6999 71.177 41.5017 70.8755 41.3795C70.574 41.2573 70.2459 41.2153 69.9233 41.2576C68.0939 41.2576 67.1767 42.3701 67.1718 44.5951V51.396H63.7083V38.7582H67.0309V40.5234C67.5018 39.852 68.1316 39.3077 68.8641 38.9388C69.5965 38.57 70.4089 38.3882 71.2286 38.4096C71.817 38.3781 72.4057 38.4664 72.959 38.6691C73.5123 38.8718 74.0187 39.1847 74.4474 39.5889C74.8586 40.0413 75.1743 40.572 75.3757 41.1493C75.577 41.7266 75.6599 42.3385 75.6193 42.9486V51.4257Z" fill="#283891"/>
<path d="M81.8266 36.8893H78.3408V33.9227H81.8266V36.8893ZM81.8266 51.4258H78.3408V38.7583H81.8266V51.4258Z" fill="#283891"/>
<path d="M92.4698 38.7582H95.9259L91.6317 51.4257H87.7306L83.3845 38.7582H87.0631L89.7702 47.3985L92.4698 38.7582Z" fill="#283891"/>
<path d="M109.268 47.4949C108.932 48.7722 108.164 49.8938 107.095 50.6692C105.806 51.5106 104.273 51.8995 102.739 51.7746C101.204 51.6497 99.7546 51.0182 98.6181 49.9795C98.0141 49.3374 97.5452 48.5804 97.2394 47.7535C96.9336 46.9267 96.7972 46.0468 96.8382 45.1661C96.776 43.3719 97.4205 41.6249 98.633 40.3009C99.2135 39.6739 99.9217 39.1787 100.71 38.8487C101.498 38.5186 102.348 38.3613 103.202 38.3874C104.063 38.349 104.922 38.5043 105.715 38.8418C106.508 39.1794 107.216 39.6907 107.785 40.3379C108.978 41.8366 109.579 43.7207 109.476 45.6334V45.9745H100.368C100.32 46.88 100.605 47.7718 101.169 48.4813C101.447 48.7742 101.786 49.0029 102.161 49.1515C102.536 49.3001 102.939 49.365 103.342 49.3416C103.915 49.3585 104.476 49.1869 104.941 48.8532C105.406 48.5195 105.749 48.0423 105.916 47.4949H109.268ZM105.923 43.7866C105.875 43.0364 105.593 42.3203 105.115 41.7397C104.877 41.4709 104.581 41.2592 104.25 41.1206C103.919 40.9819 103.56 40.9197 103.202 40.9387C102.849 40.9244 102.497 40.9829 102.168 41.1105C101.839 41.2381 101.539 41.4321 101.288 41.6803C100.746 42.2453 100.42 42.9832 100.368 43.7644L105.923 43.7866Z" fill="#283891"/>
<path d="M119.651 38.5358V41.7545C119.205 41.6588 118.75 41.6091 118.294 41.6062C117.816 41.5699 117.336 41.6502 116.895 41.8401C116.455 42.03 116.067 42.3238 115.765 42.6965C115.183 43.5722 114.899 44.6129 114.957 45.6631V51.4554H111.493V38.7583H114.808V41.0871C115.146 40.2888 115.72 39.613 116.454 39.1504C117.187 38.6877 118.044 38.4603 118.91 38.4987C119.158 38.507 119.406 38.5317 119.651 38.5728" fill="#283891"/>
<path d="M131.711 42.4368H128.47C128.448 42.1723 128.371 41.9153 128.243 41.6827C128.115 41.4501 127.94 41.2471 127.728 41.087C127.218 40.7918 126.632 40.6549 126.045 40.6939C125.54 40.6646 125.039 40.7804 124.598 41.0277C124.439 41.1215 124.307 41.2562 124.217 41.4179C124.127 41.5796 124.082 41.7624 124.087 41.9473C124.071 42.1482 124.119 42.3488 124.225 42.5206C124.33 42.6924 124.487 42.8266 124.672 42.9041C125.356 43.1717 126.064 43.3704 126.786 43.4974L127.179 43.5716C127.765 43.6828 128.24 43.7866 128.588 43.8756C129.029 43.9933 129.46 44.142 129.879 44.3206C130.308 44.4781 130.708 44.709 131.058 45.003C131.364 45.2977 131.615 45.6442 131.8 46.0265C132.023 46.4884 132.132 46.997 132.119 47.5098C132.141 48.1204 132.011 48.7271 131.742 49.2757C131.473 49.8243 131.072 50.2979 130.576 50.6544C129.322 51.4906 127.831 51.8967 126.326 51.8114C124.832 51.8708 123.353 51.4863 122.077 50.7063C121.525 50.3339 121.079 49.8242 120.784 49.2273C120.489 48.6304 120.354 47.9669 120.393 47.3021H123.708C123.817 48.7113 124.717 49.4158 126.408 49.4158C127 49.4465 127.587 49.2964 128.092 48.9857C128.285 48.8647 128.443 48.6962 128.552 48.4961C128.662 48.2961 128.717 48.0713 128.714 47.8435C128.73 47.6386 128.685 47.4337 128.585 47.2543C128.484 47.0749 128.334 46.929 128.151 46.8349C127.479 46.5474 126.777 46.3336 126.059 46.197L125.867 46.1525C125.748 46.1525 125.496 46.0561 125.125 45.9745C124.754 45.893 124.457 45.8336 124.302 45.7891C124.146 45.7446 123.894 45.6853 123.56 45.5815C123.291 45.5161 123.03 45.4216 122.781 45.2996L122.136 44.9585C121.906 44.8526 121.701 44.6983 121.535 44.5061C121.402 44.3429 121.261 44.1501 121.105 43.9276C120.948 43.7056 120.839 43.4529 120.786 43.1859C120.725 42.8858 120.695 42.58 120.697 42.2737C120.672 41.7114 120.792 41.1522 121.045 40.6497C121.299 40.1471 121.677 39.718 122.143 39.4035C123.377 38.7483 124.752 38.4057 126.148 38.4057C127.545 38.4057 128.92 38.7483 130.153 39.4035C130.658 39.7358 131.07 40.1916 131.349 40.7277C131.628 41.2638 131.765 41.8624 131.748 42.4665" fill="#283891"/>
<path d="M137.778 36.8893H134.292V33.9227H137.778V36.8893ZM137.778 51.4258H134.292V38.7583H137.778V51.4258Z" fill="#283891"/>
<path d="M147.501 38.7583V41.1167H144.92V47.05C144.92 47.4282 144.92 47.7026 144.92 47.8732C144.94 48.0585 144.998 48.2378 145.09 48.3998C145.135 48.4885 145.199 48.5663 145.277 48.6278C145.355 48.6893 145.446 48.733 145.543 48.7558C145.829 48.824 146.123 48.8539 146.418 48.8448C146.77 48.8499 147.121 48.8325 147.471 48.7929V51.448C146.618 51.5147 145.913 51.5444 145.357 51.5444C143.874 51.5444 142.798 51.2774 142.257 50.7434C141.716 50.2094 141.434 49.1859 141.434 47.6656V41.1167H139.32V38.7583H141.434V34.9239H144.89V38.7583H147.501Z" fill="#283891"/>
<path d="M160.687 38.7582L156.022 51.3664C155.793 52.0042 155.622 52.4492 155.518 52.7014C155.414 52.9535 155.251 53.3095 155.029 53.7694C154.877 54.1199 154.669 54.4431 154.413 54.7261C154.181 54.9494 153.934 55.1552 153.671 55.3417C153.351 55.5729 152.984 55.7322 152.596 55.8089C152.139 55.8968 151.674 55.939 151.209 55.935H148.873V53.0648H150.571C150.809 53.0809 151.047 53.0499 151.272 52.9735C151.497 52.8972 151.705 52.7769 151.884 52.6198C152.041 52.4527 152.162 52.2553 152.24 52.0398C152.317 51.8242 152.35 51.5951 152.336 51.3664C152.326 51.1997 152.294 51.035 152.24 50.8769L147.649 38.7731H151.402L154.28 47.3985L157.076 38.7805L160.687 38.7582Z" fill="#283891"/>
</svg>
