<svg width="160" height="60" viewBox="0 0 160 60" fill="none" xmlns="http://www.w3.org/2000/svg">
<path d="M11.4391 17.8566V0H0V38.3273L5.05862 33.2613C7.08319 31.2395 8.68892 28.8381 9.7838 26.1947C10.8787 23.5513 11.4412 20.7178 11.4391 17.8566Z" fill="#FC502B"/>
<path d="M0 52.624V59.743H11.4391V32.1606L6.3805 37.2193C2.29569 41.3054 0.000673885 46.8463 0 52.624Z" fill="#FC502B"/>
<path d="M26.6298 6.04818V0H15.1907V26.5116L20.2493 21.453C22.2739 19.4312 23.8796 17.0298 24.9745 14.3863C26.0694 11.7429 26.6319 8.90939 26.6298 6.04818Z" fill="#FC502B"/>
<path d="M21.5712 25.4112C19.5482 27.4342 17.9436 29.8359 16.8488 32.479C15.754 35.1222 15.1906 37.9551 15.1907 40.816V59.7434H26.6372V20.3452L21.5712 25.4112Z" fill="#FC502B"/>
<path d="M45.6899 9.10546H53.1929C54.8599 9.01617 56.5057 9.51251 57.8454 10.5086C58.4352 11.0286 58.8972 11.6775 59.1956 12.4049C59.494 13.1324 59.6208 13.9188 59.5661 14.7032C59.6177 15.4796 59.4893 16.2575 59.1909 16.9761C58.8924 17.6948 58.4319 18.3347 57.8454 18.8461C56.5785 19.8194 55.0109 20.3184 53.4145 20.2566H49.5005V26.5115H45.6899V9.10546ZM49.4784 12.2366V17.2509H52.8754C54.8447 17.2509 55.8293 16.4189 55.8293 14.7549C55.8293 13.0785 54.8398 12.2366 52.8754 12.2366H49.4784Z" fill="white"/>
<path d="M69.794 13.677V16.882C69.3518 16.7897 68.9017 16.7403 68.45 16.7343C67.9798 16.7042 67.5093 16.7871 67.0776 16.9759C66.646 17.1648 66.2657 17.4541 65.9687 17.8199C65.3851 18.6902 65.1024 19.7277 65.1638 20.7738V26.5414H61.6929V13.8985H64.9939V16.2173C65.3247 15.4156 65.8938 14.7349 66.6242 14.2673C67.3547 13.7997 68.2111 13.5678 69.0777 13.6031C69.325 13.6145 69.5715 13.6391 69.8162 13.677" fill="white"/>
<path d="M76.891 13.5282C77.7565 13.4913 78.6202 13.6358 79.4265 13.9524C80.2328 14.2691 80.964 14.751 81.573 15.3671C82.1754 16.0148 82.6425 16.7763 82.9469 17.6069C83.2512 18.4375 83.3867 19.3205 83.3454 20.2041C83.3878 21.0924 83.2529 21.9801 82.9486 22.8157C82.6443 23.6512 82.1767 24.4178 81.573 25.0707C80.2764 26.2487 78.5874 26.9014 76.8356 26.9014C75.0838 26.9014 73.3949 26.2487 72.0982 25.0707C71.4895 24.4207 71.0176 23.6549 70.7106 22.8189C70.4036 21.9829 70.2677 21.0937 70.3111 20.2041C70.27 19.3174 70.4092 18.4316 70.7202 17.6002C71.0311 16.7688 71.5075 16.0091 72.1204 15.3671C72.7458 14.7482 73.4925 14.2654 74.3135 13.9489C75.1344 13.6325 76.012 13.4893 76.891 13.5282ZM76.7876 16.172C76.3587 16.1543 75.9321 16.2428 75.5456 16.4296C75.1591 16.6164 74.8247 16.8957 74.5722 17.2428C73.995 18.1161 73.7129 19.1514 73.7672 20.1968C73.7053 21.2591 73.9876 22.3131 74.5722 23.2024C74.8262 23.5485 75.1606 23.8275 75.5466 24.0153C75.9326 24.2032 76.3586 24.2942 76.7876 24.2806C77.2177 24.296 77.645 24.2049 78.0315 24.0156C78.4179 23.8262 78.7517 23.5443 79.0031 23.195C79.5828 22.2984 79.8621 21.2405 79.8006 20.1746C79.8638 19.1262 79.5753 18.0866 78.9809 17.2207C78.7226 16.8867 78.3897 16.6179 78.0088 16.4358C77.6279 16.2537 77.2097 16.1634 76.7876 16.172Z" fill="white"/>
<path d="M92.4876 9.1051V11.6455L91.343 11.6012C90.9135 11.5551 90.4802 11.6428 90.1023 11.8523C89.9835 11.996 89.8953 12.1625 89.8432 12.3416C89.7911 12.5206 89.7763 12.7085 89.7996 12.8935V13.8979H92.2661V16.2462H89.8217V26.5112H86.3508V16.2462H84.2979V13.8979H86.3508V13.2406C86.3508 11.7636 86.6832 10.6781 87.3552 10.0208C88.0272 9.36357 89.1349 9.03125 90.6784 9.03125C90.8556 9.03125 91.0476 9.03125 91.2544 9.03125H91.9264C92.1701 9.03125 92.3621 9.03125 92.4876 9.03125" fill="white"/>
<path d="M97.3322 12.0365H93.8613V9.08252H97.3322V12.0365ZM97.3322 26.5107H93.8613V13.8974H97.3322V26.5107Z" fill="white"/>
<path d="M60.4818 33.6006V44.0428C60.4818 46.5388 59.8812 48.3777 58.6799 49.5592C57.4787 50.7408 55.6103 51.3316 53.0748 51.3316C50.4951 51.3316 48.5996 50.731 47.3885 49.5297C46.1774 48.3284 45.5694 46.4994 45.5645 44.0428V33.6006H49.3824V44.0428C49.2972 45.1561 49.58 46.2665 50.1874 47.2035C50.7265 47.8829 51.7013 48.23 53.1413 48.23C54.5813 48.23 55.4454 47.8829 55.9402 47.2035C56.5061 46.2511 56.764 45.1472 56.6786 44.0428V33.6006H60.4818Z" fill="white"/>
<path d="M75.2956 51.0066H71.7804V43.6218C71.825 42.9121 71.6716 42.2039 71.3373 41.5762C71.136 41.3224 70.8724 41.125 70.5721 41.0034C70.2719 40.8817 69.9453 40.8399 69.624 40.882C67.8024 40.882 66.8892 41.9897 66.8843 44.2052V50.9771H63.4355V38.3933H66.744V40.1509C67.2129 39.4824 67.84 38.9404 68.5693 38.5732C69.2986 38.2059 70.1075 38.0249 70.9238 38.0462C71.5097 38.0149 72.0958 38.1028 72.6467 38.3046C73.1976 38.5064 73.7018 38.818 74.1288 39.2204C74.5382 39.6709 74.8526 40.1994 75.0531 40.7742C75.2536 41.349 75.336 41.9583 75.2956 42.5658V51.0066Z" fill="white"/>
<path d="M81.4767 36.5326H78.0059V33.5786H81.4767V36.5326ZM81.4767 51.0068H78.0059V38.3935H81.4767V51.0068Z" fill="white"/>
<path d="M92.074 38.3931H95.5154L91.2395 51.0064H87.3551L83.0276 38.3931H86.6905L89.3859 46.9964L92.074 38.3931Z" fill="white"/>
<path d="M108.801 47.0924C108.466 48.3642 107.701 49.481 106.637 50.2531C105.353 51.0909 103.827 51.478 102.299 51.3537C100.771 51.2294 99.3275 50.6006 98.1959 49.5663C97.5944 48.9269 97.1276 48.1732 96.8231 47.3499C96.5187 46.5265 96.3828 45.6504 96.4236 44.7735C96.3617 42.9869 97.0034 41.2474 98.2107 39.9291C98.7888 39.3048 99.4939 38.8117 100.279 38.4831C101.063 38.1544 101.909 37.9978 102.76 38.0238C103.617 37.9855 104.473 38.1402 105.262 38.4763C106.052 38.8124 106.757 39.3215 107.324 39.966C108.511 41.4582 109.11 43.3343 109.007 45.2388V45.5785H99.9388C99.8905 46.48 100.174 47.368 100.736 48.0745C101.013 48.3662 101.35 48.5939 101.724 48.7419C102.097 48.8898 102.499 48.9544 102.9 48.9312C103.47 48.948 104.029 48.7771 104.492 48.4448C104.955 48.1126 105.296 47.6374 105.463 47.0924H108.801ZM105.47 43.3999C105.422 42.6529 105.141 41.9398 104.665 41.3617C104.428 41.0941 104.133 40.8834 103.804 40.7453C103.474 40.6072 103.117 40.5453 102.76 40.5642C102.409 40.55 102.058 40.6082 101.73 40.7353C101.403 40.8623 101.104 41.0554 100.854 41.3026C100.315 41.8652 99.9906 42.5999 99.9388 43.3778L105.47 43.3999Z" fill="white"/>
<path d="M119.14 38.1719V41.377C118.695 41.2817 118.243 41.2322 117.788 41.2293C117.312 41.1931 116.834 41.273 116.396 41.4621C115.957 41.6512 115.571 41.9438 115.27 42.3148C114.69 43.1868 114.408 44.2231 114.465 45.2688V51.0363H111.016V38.3935H114.317V40.7123C114.654 39.9175 115.226 39.2446 115.956 38.7839C116.686 38.3232 117.539 38.0968 118.401 38.135C118.649 38.1433 118.895 38.1679 119.14 38.2089" fill="white"/>
<path d="M131.147 42.0559H127.92C127.899 41.7925 127.822 41.5366 127.695 41.305C127.567 41.0734 127.393 40.8712 127.182 40.7119C126.674 40.4179 126.091 40.2816 125.505 40.3205C125.004 40.2913 124.504 40.4066 124.065 40.6528C123.907 40.7462 123.776 40.8803 123.686 41.0413C123.596 41.2023 123.551 41.3843 123.556 41.5685C123.54 41.7685 123.588 41.9683 123.693 42.1393C123.798 42.3104 123.954 42.444 124.139 42.5212C124.819 42.7876 125.524 42.9855 126.244 43.1119L126.635 43.1858C127.219 43.2966 127.691 43.4 128.038 43.4886C128.477 43.6057 128.906 43.7538 129.323 43.9317C129.751 44.0885 130.148 44.3183 130.498 44.6111C130.802 44.9045 131.052 45.2496 131.236 45.6302C131.458 46.0902 131.567 46.5966 131.554 47.1071C131.575 47.7152 131.447 48.3192 131.179 48.8655C130.911 49.4118 130.512 49.8834 130.018 50.2383C128.769 51.071 127.284 51.4753 125.786 51.3904C124.298 51.4496 122.825 51.0667 121.555 50.29C121.005 49.9192 120.561 49.4117 120.267 48.8173C119.973 48.223 119.839 47.5623 119.878 46.9004H123.179C123.288 48.3035 124.184 49.0051 125.867 49.0051C126.457 49.0356 127.041 48.8862 127.544 48.5767C127.736 48.4563 127.894 48.2885 128.003 48.0893C128.111 47.8901 128.167 47.6663 128.164 47.4395C128.179 47.2354 128.134 47.0314 128.035 46.8527C127.935 46.6741 127.785 46.5289 127.603 46.4351C126.934 46.1489 126.235 45.936 125.52 45.8L125.328 45.7557C125.21 45.7557 124.959 45.6597 124.59 45.5785C124.22 45.4973 123.925 45.4382 123.77 45.3939C123.615 45.3496 123.364 45.2905 123.032 45.1871C122.764 45.122 122.504 45.0279 122.256 44.9065L121.614 44.5668C121.384 44.4613 121.18 44.3077 121.015 44.1163C120.883 43.9538 120.742 43.7618 120.587 43.5403C120.43 43.3193 120.322 43.0676 120.27 42.8018C120.208 42.5029 120.179 42.1985 120.181 41.8934C120.156 41.3336 120.276 40.7768 120.528 40.2764C120.78 39.7759 121.156 39.3487 121.621 39.0355C122.849 38.3831 124.218 38.042 125.609 38.042C126.999 38.042 128.369 38.3831 129.597 39.0355C130.099 39.3664 130.509 39.8203 130.787 40.3541C131.065 40.8879 131.202 41.4839 131.184 42.0855" fill="white"/>
<path d="M137.188 36.5326H133.717V33.5786H137.188V36.5326ZM137.188 51.0068H133.717V38.3935H137.188V51.0068Z" fill="white"/>
<path d="M146.87 38.3932V40.7415H144.3V46.6494C144.3 47.026 144.3 47.2993 144.3 47.4691C144.32 47.6537 144.378 47.8321 144.47 47.9935C144.514 48.0818 144.578 48.1593 144.656 48.2205C144.733 48.2818 144.824 48.3252 144.92 48.3479C145.205 48.4159 145.498 48.4457 145.791 48.4365C146.142 48.4416 146.492 48.4244 146.84 48.3848V51.0286C145.991 51.0951 145.289 51.1246 144.735 51.1246C143.258 51.1246 142.188 50.8588 141.649 50.3271C141.109 49.7954 140.829 48.7762 140.829 47.2624V40.7415H138.724V38.3932H140.829V34.5752H144.27V38.3932H146.87Z" fill="white"/>
<path d="M160 38.3931L155.355 50.9473C155.126 51.5824 154.956 52.0255 154.853 52.2766C154.75 52.5277 154.587 52.8821 154.365 53.34C154.215 53.689 154.008 54.0109 153.753 54.2926C153.522 54.515 153.275 54.7199 153.014 54.9056C152.695 55.1358 152.329 55.2945 151.943 55.3708C151.488 55.4583 151.026 55.5004 150.562 55.4964H148.236V52.6384H149.927C150.164 52.6545 150.401 52.6236 150.625 52.5476C150.849 52.4715 151.056 52.3518 151.234 52.1953C151.39 52.0289 151.511 51.8324 151.588 51.6178C151.666 51.4032 151.699 51.175 151.685 50.9473C151.675 50.7813 151.642 50.6173 151.589 50.4599L147.018 38.4078H150.754L153.62 46.9964L156.404 38.4152L160 38.3931Z" fill="white"/>
</svg>
